<svg xmlns="http://www.w3.org/2000/svg" xmlns:xlink="http://www.w3.org/1999/xlink" width="500" zoomAndPan="magnify" viewBox="0 0 375 374.999991" height="500" preserveAspectRatio="xMidYMid meet" version="1.0"><defs><clipPath id="b731e08580"><path d="M 90.21875 83.289062 L 129.132812 83.289062 L 129.132812 122.203125 L 90.21875 122.203125 Z M 90.21875 83.289062 " clip-rule="nonzero"/></clipPath><clipPath id="d6ab524e69"><path d="M 129.132812 83.289062 L 168.042969 83.289062 L 168.042969 122.203125 L 129.132812 122.203125 Z M 129.132812 83.289062 " clip-rule="nonzero"/></clipPath><clipPath id="aef0caca6d"><path d="M 168.042969 83.289062 L 206.957031 83.289062 L 206.957031 122.203125 L 168.042969 122.203125 Z M 168.042969 83.289062 " clip-rule="nonzero"/></clipPath><clipPath id="ed433e859c"><path d="M 206.957031 83.289062 L 245.867188 83.289062 L 245.867188 122.203125 L 206.957031 122.203125 Z M 206.957031 83.289062 " clip-rule="nonzero"/></clipPath><clipPath id="817e9fcf00"><path d="M 245.867188 83.289062 L 284.78125 83.289062 L 284.78125 122.203125 L 245.867188 122.203125 Z M 245.867188 83.289062 " clip-rule="nonzero"/></clipPath><clipPath id="4b7fec8bab"><path d="M 90.21875 122.203125 L 129.132812 122.203125 L 129.132812 161.113281 L 90.21875 161.113281 Z M 90.21875 122.203125 " clip-rule="nonzero"/></clipPath><clipPath id="51aadff6af"><path d="M 129.132812 122.203125 L 168.042969 122.203125 L 168.042969 161.113281 L 129.132812 161.113281 Z M 129.132812 122.203125 " clip-rule="nonzero"/></clipPath><clipPath id="6bb2276732"><path d="M 168.042969 122.203125 L 206.957031 122.203125 L 206.957031 161.113281 L 168.042969 161.113281 Z M 168.042969 122.203125 " clip-rule="nonzero"/></clipPath><clipPath id="6def91c914"><path d="M 206.957031 122.203125 L 245.867188 122.203125 L 245.867188 161.113281 L 206.957031 161.113281 Z M 206.957031 122.203125 " clip-rule="nonzero"/></clipPath><clipPath id="361890ffc4"><path d="M 245.867188 122.203125 L 284.78125 122.203125 L 284.78125 161.113281 L 245.867188 161.113281 Z M 245.867188 122.203125 " clip-rule="nonzero"/></clipPath><clipPath id="3a7720a00f"><path d="M 90.21875 161.113281 L 129.132812 161.113281 L 129.132812 200.023438 L 90.21875 200.023438 Z M 90.21875 161.113281 " clip-rule="nonzero"/></clipPath><clipPath id="f2f46be89a"><path d="M 129.132812 161.113281 L 168.042969 161.113281 L 168.042969 200.023438 L 129.132812 200.023438 Z M 129.132812 161.113281 " clip-rule="nonzero"/></clipPath><clipPath id="520cdd9bc5"><path d="M 168.042969 161.113281 L 206.957031 161.113281 L 206.957031 200.023438 L 168.042969 200.023438 Z M 168.042969 161.113281 " clip-rule="nonzero"/></clipPath><clipPath id="e9fb578bc5"><path d="M 206.957031 161.113281 L 245.867188 161.113281 L 245.867188 200.023438 L 206.957031 200.023438 Z M 206.957031 161.113281 " clip-rule="nonzero"/></clipPath><clipPath id="2d6c683289"><path d="M 245.867188 161.113281 L 284.78125 161.113281 L 284.78125 200.023438 L 245.867188 200.023438 Z M 245.867188 161.113281 " clip-rule="nonzero"/></clipPath><clipPath id="fa11212553"><path d="M 90.21875 200.023438 L 129.132812 200.023438 L 129.132812 238.9375 L 90.21875 238.9375 Z M 90.21875 200.023438 " clip-rule="nonzero"/></clipPath><clipPath id="a680093ffe"><path d="M 129.132812 200.023438 L 168.042969 200.023438 L 168.042969 238.9375 L 129.132812 238.9375 Z M 129.132812 200.023438 " clip-rule="nonzero"/></clipPath><clipPath id="adfffc809b"><path d="M 168.042969 200.023438 L 206.957031 200.023438 L 206.957031 238.9375 L 168.042969 238.9375 Z M 168.042969 200.023438 " clip-rule="nonzero"/></clipPath><clipPath id="f93c025979"><path d="M 206.957031 200.023438 L 245.867188 200.023438 L 245.867188 238.9375 L 206.957031 238.9375 Z M 206.957031 200.023438 " clip-rule="nonzero"/></clipPath><clipPath id="0b6b195cb8"><path d="M 245.867188 200.023438 L 284.78125 200.023438 L 284.78125 238.9375 L 245.867188 238.9375 Z M 245.867188 200.023438 " clip-rule="nonzero"/></clipPath><clipPath id="afb3cfc172"><path d="M 90.21875 238.9375 L 129.132812 238.9375 L 129.132812 277.847656 L 90.21875 277.847656 Z M 90.21875 238.9375 " clip-rule="nonzero"/></clipPath><clipPath id="e15a8ef0c7"><path d="M 129.132812 238.9375 L 168.042969 238.9375 L 168.042969 277.847656 L 129.132812 277.847656 Z M 129.132812 238.9375 " clip-rule="nonzero"/></clipPath><clipPath id="1b66f18ce7"><path d="M 168.042969 238.9375 L 206.957031 238.9375 L 206.957031 277.847656 L 168.042969 277.847656 Z M 168.042969 238.9375 " clip-rule="nonzero"/></clipPath><clipPath id="e7cb8e523d"><path d="M 206.957031 238.9375 L 245.867188 238.9375 L 245.867188 277.847656 L 206.957031 277.847656 Z M 206.957031 238.9375 " clip-rule="nonzero"/></clipPath><clipPath id="0ea428a79c"><path d="M 245.867188 238.9375 L 284.78125 238.9375 L 284.78125 277.847656 L 245.867188 277.847656 Z M 245.867188 238.9375 " clip-rule="nonzero"/></clipPath><clipPath id="2cf8489044"><path d="M 90.21875 277.847656 L 129.132812 277.847656 L 129.132812 316.761719 L 90.21875 316.761719 Z M 90.21875 277.847656 " clip-rule="nonzero"/></clipPath><clipPath id="4fd6e593ae"><path d="M 129.132812 277.847656 L 168.042969 277.847656 L 168.042969 316.761719 L 129.132812 316.761719 Z M 129.132812 277.847656 " clip-rule="nonzero"/></clipPath><clipPath id="cdce57d033"><path d="M 168.042969 277.847656 L 206.957031 277.847656 L 206.957031 316.761719 L 168.042969 316.761719 Z M 168.042969 277.847656 " clip-rule="nonzero"/></clipPath><clipPath id="ed62dc07ea"><path d="M 206.957031 277.847656 L 245.867188 277.847656 L 245.867188 316.761719 L 206.957031 316.761719 Z M 206.957031 277.847656 " clip-rule="nonzero"/></clipPath><clipPath id="3d3ad8a9b2"><path d="M 245.867188 277.847656 L 284.78125 277.847656 L 284.78125 316.761719 L 245.867188 316.761719 Z M 245.867188 277.847656 " clip-rule="nonzero"/></clipPath></defs><g clip-path="url(#b731e08580)"><path fill="#7ed957" d="M 90.21875 83.289062 L 129.132812 83.289062 L 129.132812 122.203125 L 90.21875 122.203125 Z M 90.21875 83.289062 " fill-opacity="1" fill-rule="nonzero"/></g><g clip-path="url(#d6ab524e69)"><path fill="#ffde59" d="M 129.132812 83.289062 L 168.042969 83.289062 L 168.042969 122.203125 L 129.132812 122.203125 Z M 129.132812 83.289062 " fill-opacity="1" fill-rule="nonzero"/></g><g clip-path="url(#aef0caca6d)"><path fill="#ff3131" d="M 168.042969 83.289062 L 206.957031 83.289062 L 206.957031 122.203125 L 168.042969 122.203125 Z M 168.042969 83.289062 " fill-opacity="1" fill-rule="nonzero"/></g><g clip-path="url(#ed433e859c)"><path fill="#a5a5a5" d="M 206.957031 83.289062 L 245.867188 83.289062 L 245.867188 122.203125 L 206.957031 122.203125 Z M 206.957031 83.289062 " fill-opacity="1" fill-rule="nonzero"/></g><g clip-path="url(#817e9fcf00)"><path fill="#45206d" d="M 245.867188 83.289062 L 284.78125 83.289062 L 284.78125 122.203125 L 245.867188 122.203125 Z M 245.867188 83.289062 " fill-opacity="1" fill-rule="nonzero"/></g><g clip-path="url(#4b7fec8bab)"><path fill="#ff3131" d="M 90.21875 122.203125 L 129.132812 122.203125 L 129.132812 161.113281 L 90.21875 161.113281 Z M 90.21875 122.203125 " fill-opacity="1" fill-rule="nonzero"/></g><g clip-path="url(#51aadff6af)"><path fill="#45206d" d="M 129.132812 122.203125 L 168.042969 122.203125 L 168.042969 161.113281 L 129.132812 161.113281 Z M 129.132812 122.203125 " fill-opacity="1" fill-rule="nonzero"/></g><g clip-path="url(#6bb2276732)"><path fill="#7ed957" d="M 168.042969 122.203125 L 206.957031 122.203125 L 206.957031 161.113281 L 168.042969 161.113281 Z M 168.042969 122.203125 " fill-opacity="1" fill-rule="nonzero"/></g><g clip-path="url(#6def91c914)"><path fill="#38b6ff" d="M 206.957031 122.203125 L 245.867188 122.203125 L 245.867188 161.113281 L 206.957031 161.113281 Z M 206.957031 122.203125 " fill-opacity="1" fill-rule="nonzero"/></g><g clip-path="url(#361890ffc4)"><path fill="#a5a5a5" d="M 245.867188 122.203125 L 284.78125 122.203125 L 284.78125 161.113281 L 245.867188 161.113281 Z M 245.867188 122.203125 " fill-opacity="1" fill-rule="nonzero"/></g><g clip-path="url(#3a7720a00f)"><path fill="#45206d" d="M 90.21875 161.113281 L 129.132812 161.113281 L 129.132812 200.023438 L 90.21875 200.023438 Z M 90.21875 161.113281 " fill-opacity="1" fill-rule="nonzero"/></g><g clip-path="url(#f2f46be89a)"><path fill="#38b6ff" d="M 129.132812 161.113281 L 168.042969 161.113281 L 168.042969 200.023438 L 129.132812 200.023438 Z M 129.132812 161.113281 " fill-opacity="1" fill-rule="nonzero"/></g><g clip-path="url(#520cdd9bc5)"><path fill="#a5a5a5" d="M 168.042969 161.113281 L 206.957031 161.113281 L 206.957031 200.023438 L 168.042969 200.023438 Z M 168.042969 161.113281 " fill-opacity="1" fill-rule="nonzero"/></g><g clip-path="url(#e9fb578bc5)"><path fill="#ffde59" d="M 206.957031 161.113281 L 245.867188 161.113281 L 245.867188 200.023438 L 206.957031 200.023438 Z M 206.957031 161.113281 " fill-opacity="1" fill-rule="nonzero"/></g><g clip-path="url(#2d6c683289)"><path fill="#ff3131" d="M 245.867188 161.113281 L 284.78125 161.113281 L 284.78125 200.023438 L 245.867188 200.023438 Z M 245.867188 161.113281 " fill-opacity="1" fill-rule="nonzero"/></g><g clip-path="url(#fa11212553)"><path fill="#ffde59" d="M 90.21875 200.023438 L 129.132812 200.023438 L 129.132812 238.9375 L 90.21875 238.9375 Z M 90.21875 200.023438 " fill-opacity="1" fill-rule="nonzero"/></g><g clip-path="url(#a680093ffe)"><path fill="#ff3131" d="M 129.132812 200.023438 L 168.042969 200.023438 L 168.042969 238.9375 L 129.132812 238.9375 Z M 129.132812 200.023438 " fill-opacity="1" fill-rule="nonzero"/></g><g clip-path="url(#adfffc809b)"><path fill="#45206d" d="M 168.042969 200.023438 L 206.957031 200.023438 L 206.957031 238.9375 L 168.042969 238.9375 Z M 168.042969 200.023438 " fill-opacity="1" fill-rule="nonzero"/></g><g clip-path="url(#f93c025979)"><path fill="#ff3131" d="M 206.957031 200.023438 L 245.867188 200.023438 L 245.867188 238.9375 L 206.957031 238.9375 Z M 206.957031 200.023438 " fill-opacity="1" fill-rule="nonzero"/></g><g clip-path="url(#0b6b195cb8)"><path fill="#38b6ff" d="M 245.867188 200.023438 L 284.78125 200.023438 L 284.78125 238.9375 L 245.867188 238.9375 Z M 245.867188 200.023438 " fill-opacity="1" fill-rule="nonzero"/></g><g clip-path="url(#afb3cfc172)"><path fill="#38b6ff" d="M 90.21875 238.9375 L 129.132812 238.9375 L 129.132812 277.847656 L 90.21875 277.847656 Z M 90.21875 238.9375 " fill-opacity="1" fill-rule="nonzero"/></g><g clip-path="url(#e15a8ef0c7)"><path fill="#a5a5a5" d="M 129.132812 238.9375 L 168.042969 238.9375 L 168.042969 277.847656 L 129.132812 277.847656 Z M 129.132812 238.9375 " fill-opacity="1" fill-rule="nonzero"/></g><g clip-path="url(#1b66f18ce7)"><path fill="#ffde59" d="M 168.042969 238.9375 L 206.957031 238.9375 L 206.957031 277.847656 L 168.042969 277.847656 Z M 168.042969 238.9375 " fill-opacity="1" fill-rule="nonzero"/></g><g clip-path="url(#e7cb8e523d)"><path fill="#45206d" d="M 206.957031 238.9375 L 245.867188 238.9375 L 245.867188 277.847656 L 206.957031 277.847656 Z M 206.957031 238.9375 " fill-opacity="1" fill-rule="nonzero"/></g><g clip-path="url(#0ea428a79c)"><path fill="#7ed957" d="M 245.867188 238.9375 L 284.78125 238.9375 L 284.78125 277.847656 L 245.867188 277.847656 Z M 245.867188 238.9375 " fill-opacity="1" fill-rule="nonzero"/></g><g clip-path="url(#2cf8489044)"><path fill="#a5a5a5" d="M 90.21875 277.847656 L 129.132812 277.847656 L 129.132812 316.761719 L 90.21875 316.761719 Z M 90.21875 277.847656 " fill-opacity="1" fill-rule="nonzero"/></g><g clip-path="url(#4fd6e593ae)"><path fill="#7ed957" d="M 129.132812 277.847656 L 168.042969 277.847656 L 168.042969 316.761719 L 129.132812 316.761719 Z M 129.132812 277.847656 " fill-opacity="1" fill-rule="nonzero"/></g><g clip-path="url(#cdce57d033)"><path fill="#38b6ff" d="M 168.042969 277.847656 L 206.957031 277.847656 L 206.957031 316.761719 L 168.042969 316.761719 Z M 168.042969 277.847656 " fill-opacity="1" fill-rule="nonzero"/></g><g clip-path="url(#ed62dc07ea)"><path fill="#7ed957" d="M 206.957031 277.847656 L 245.867188 277.847656 L 245.867188 316.761719 L 206.957031 316.761719 Z M 206.957031 277.847656 " fill-opacity="1" fill-rule="nonzero"/></g><g clip-path="url(#3d3ad8a9b2)"><path fill="#ff3131" d="M 245.867188 277.847656 L 284.78125 277.847656 L 284.78125 316.761719 L 245.867188 316.761719 Z M 245.867188 277.847656 " fill-opacity="1" fill-rule="nonzero"/></g></svg>